<svg width="142" height="24" viewBox="0 0 142 24" xmlns="http://www.w3.org/2000/svg"><title>GitStart's logo</title><path d="M55.2753 23.5219V11.4422H43.6464V15.7131H50.5077C50.2178 16.988 48.6394 19.4104 44.8705 19.4104C41.166 19.4104 38.0091 16.9562 38.0091 12.239C38.0091 7.20319 41.6491 5.16335 44.7416 5.16335C48.5427 5.16335 50.0568 7.71315 50.4111 9.11554L55.3075 7.4263C54.3089 4.27092 51.2809 0.446215 44.7416 0.446215C38.299 0.446215 32.855 5.13148 32.855 12.239C32.855 19.3785 38.0735 24 44.4195 24C47.673 24 49.8313 22.6614 50.8299 21.2271L51.152 23.5219H55.2753Z"></path><path d="M62.1228 23.5219V7.68128H57.2264V15.6016V23.5219H62.1228ZM56.8077 2.83665C56.8077 4.39841 58.0962 5.67331 59.6424 5.67331C61.2531 5.67331 62.5416 4.39841 62.5416 2.83665C62.5416 1.2749 61.2531 0 59.6424 0C58.0962 0 56.8077 1.2749 56.8077 2.83665Z"></path><path d="M71.259 3.05976H66.878V5.0996C66.878 6.56574 66.0727 7.68128 64.3976 7.68128H63.5923V11.9203H66.427V18.7092C66.427 21.8645 68.4564 23.8088 71.7744 23.8088C73.3206 23.8088 74.1259 23.4582 74.3192 23.3626V19.3466C74.0293 19.4104 73.5461 19.506 73.0307 19.506C71.9677 19.506 71.259 19.1554 71.259 17.8486V11.9203H74.3837V7.68128H71.259V3.05976Z"></path><path d="M92.4134 6.47012C91.9302 3.8247 89.772 0.446215 84.0703 0.446215C79.6893 0.446215 75.8881 3.44223 75.8881 7.71315C75.8881 11.0598 78.2397 13.6096 82.1053 14.3426L85.2299 14.9163C86.7439 15.2032 87.6781 16.0319 87.6781 17.1793C87.6781 18.5817 86.454 19.5378 84.4568 19.5378C81.3321 19.5378 79.9148 17.7211 79.7215 15.6494L75.0506 16.7649C75.3727 19.9522 78.0786 24 84.3924 24C89.8364 24 92.8322 20.3984 92.8322 16.8606C92.8322 13.6414 90.5773 10.8685 86.2285 10.0717L83.1683 9.49801C81.5898 9.21115 80.9134 8.41434 80.9134 7.33068C80.9134 6.08765 82.1375 4.90837 84.038 4.90837C86.8084 4.90837 87.6781 6.69323 87.8392 7.74502L92.4134 6.47012Z"></path><path d="M100.601 3.05976H96.2198V5.0996C96.2198 6.56574 95.4145 7.68128 93.7394 7.68128H92.9341V11.9203H95.7688V18.7092C95.7688 21.8645 97.7982 23.8088 101.116 23.8088C102.662 23.8088 103.468 23.4582 103.661 23.3626V19.3466C103.371 19.4104 102.888 19.506 102.372 19.506C101.309 19.506 100.601 19.1554 100.601 17.8486V11.9203H103.725V7.68128H100.601V3.05976Z"></path><path d="M105.275 19.1554C105.275 21.6733 107.304 23.9681 110.815 23.9681C112.941 23.9681 114.488 23.0757 115.325 21.7371C115.325 22.8207 115.454 23.3944 115.486 23.5219H119.899C119.867 23.3626 119.706 22.3108 119.706 21.0677V13.3227C119.706 10.0717 117.806 7.20319 112.619 7.20319C107.916 7.20319 105.79 10.1992 105.597 12.4622L109.849 13.3227C109.946 12.1434 110.88 10.996 112.587 10.996C114.133 10.996 114.939 11.7928 114.939 12.7171C114.939 13.259 114.649 13.6733 113.779 13.8008L110.01 14.3745C107.368 14.757 105.275 16.3506 105.275 19.1554ZM112.007 20.4622C110.654 20.4622 110.107 19.6653 110.107 18.8367C110.107 17.7211 110.88 17.243 111.911 17.0837L114.939 16.6056V17.3068C114.939 19.761 113.457 20.4622 112.007 20.4622Z"></path><path d="M130.489 7.52191C130.373 7.52191 130.604 7.52191 130.489 7.52191C129.201 7.52191 127.171 8.03187 126.334 9.81673V7.68128H121.599V23.5219H126.495V16.6056C126.495 13.4502 128.267 12.3028 130.232 12.3028C130.456 12.3028 129.894 12.3029 130.456 12.3028L130.489 7.52191Z"></path><path d="M138.75 3.05976H134.369V5.0996C134.369 6.56574 133.564 7.52191 131.889 7.52191V12.3028H133.918V18.7092C133.918 21.8645 135.947 23.8088 139.265 23.8088C140.812 23.8088 141.617 23.4582 141.81 23.3626V19.3466C141.52 19.4104 141.037 19.506 140.522 19.506C139.459 19.506 138.75 19.1554 138.75 17.8486V11.9203H141.875V7.68128H138.75V3.05976Z"></path><path fill-rule="evenodd" clip-rule="evenodd" d="M12 21.8039C17.4146 21.8039 21.8039 17.4146 21.8039 12C21.8039 6.58544 17.4146 2.19608 12 2.19608C6.58544 2.19608 2.19608 6.58544 2.19608 12C2.19608 17.4146 6.58544 21.8039 12 21.8039ZM12 24C18.6274 24 24 18.6274 24 12C24 5.37258 18.6274 0 12 0C5.37258 0 0 5.37258 0 12C0 18.6274 5.37258 24 12 24Z"></path><path fill-rule="evenodd" clip-rule="evenodd" d="M26.2531 4.14369C26.9642 4.14369 27.5407 3.56724 27.5407 2.85616C27.5407 2.14507 26.9642 1.56863 26.2531 1.56863C25.542 1.56863 24.9656 2.14507 24.9656 2.85616C24.9656 3.56724 25.542 4.14369 26.2531 4.14369ZM26.2531 5.71232C27.8305 5.71232 29.1093 4.43357 29.1093 2.85616C29.1093 1.27875 27.8305 0 26.2531 0C24.6757 0 23.397 1.27875 23.397 2.85616C23.397 4.43357 24.6757 5.71232 26.2531 5.71232Z"></path></svg>